<?xml version="1.0" encoding="utf-8"?>
<svg xmlns="http://www.w3.org/2000/svg" xmlns:xlink="http://www.w3.org/1999/xlink" width="600" height="400" viewBox="0 0 2400 1600">
<defs>
  <clipPath id="clip620">
    <rect x="0" y="0" width="2400" height="1600"/>
  </clipPath>
</defs>
<path clip-path="url(#clip620)" d="M0 1600 L2400 1600 L2400 8.88178e-14 L0 8.88178e-14  Z" fill="#ffffff" fill-rule="evenodd" fill-opacity="1"/>
<defs>
  <clipPath id="clip621">
    <rect x="480" y="0" width="1681" height="1600"/>
  </clipPath>
</defs>
<path clip-path="url(#clip620)" d="M232.389 1423.18 L2352.76 1423.18 L2352.76 47.2441 L232.389 47.2441  Z" fill="#f2f2f2" fill-rule="evenodd" fill-opacity="1"/>
<defs>
  <clipPath id="clip622">
    <rect x="232" y="47" width="2121" height="1377"/>
  </clipPath>
</defs>
<polyline clip-path="url(#clip622)" style="stroke:#000000; stroke-linecap:round; stroke-linejoin:round; stroke-width:2; stroke-opacity:0.1; fill:none" points="289.686,1423.18 289.686,47.2441 "/>
<polyline clip-path="url(#clip622)" style="stroke:#000000; stroke-linecap:round; stroke-linejoin:round; stroke-width:2; stroke-opacity:0.1; fill:none" points="832.52,1423.18 832.52,47.2441 "/>
<polyline clip-path="url(#clip622)" style="stroke:#000000; stroke-linecap:round; stroke-linejoin:round; stroke-width:2; stroke-opacity:0.1; fill:none" points="1375.35,1423.18 1375.35,47.2441 "/>
<polyline clip-path="url(#clip622)" style="stroke:#000000; stroke-linecap:round; stroke-linejoin:round; stroke-width:2; stroke-opacity:0.1; fill:none" points="1918.19,1423.18 1918.19,47.2441 "/>
<polyline clip-path="url(#clip622)" style="stroke:#000000; stroke-linecap:round; stroke-linejoin:round; stroke-width:2; stroke-opacity:0.1; fill:none" points="289.686,1423.18 289.686,47.2441 "/>
<polyline clip-path="url(#clip622)" style="stroke:#000000; stroke-linecap:round; stroke-linejoin:round; stroke-width:2; stroke-opacity:0.1; fill:none" points="832.52,1423.18 832.52,47.2441 "/>
<polyline clip-path="url(#clip622)" style="stroke:#000000; stroke-linecap:round; stroke-linejoin:round; stroke-width:2; stroke-opacity:0.1; fill:none" points="1375.35,1423.18 1375.35,47.2441 "/>
<polyline clip-path="url(#clip622)" style="stroke:#000000; stroke-linecap:round; stroke-linejoin:round; stroke-width:2; stroke-opacity:0.1; fill:none" points="1918.19,1423.18 1918.19,47.2441 "/>
<polyline clip-path="url(#clip622)" style="stroke:#000000; stroke-linecap:round; stroke-linejoin:round; stroke-width:2; stroke-opacity:0.1; fill:none" points="232.389,1156.61 2352.76,1156.61 "/>
<polyline clip-path="url(#clip622)" style="stroke:#000000; stroke-linecap:round; stroke-linejoin:round; stroke-width:2; stroke-opacity:0.1; fill:none" points="232.389,889.006 2352.76,889.006 "/>
<polyline clip-path="url(#clip622)" style="stroke:#000000; stroke-linecap:round; stroke-linejoin:round; stroke-width:2; stroke-opacity:0.1; fill:none" points="232.389,621.399 2352.76,621.399 "/>
<polyline clip-path="url(#clip622)" style="stroke:#000000; stroke-linecap:round; stroke-linejoin:round; stroke-width:2; stroke-opacity:0.1; fill:none" points="232.389,353.792 2352.76,353.792 "/>
<polyline clip-path="url(#clip622)" style="stroke:#000000; stroke-linecap:round; stroke-linejoin:round; stroke-width:2; stroke-opacity:0.1; fill:none" points="232.389,86.1857 2352.76,86.1857 "/>
<polyline clip-path="url(#clip622)" style="stroke:#000000; stroke-linecap:round; stroke-linejoin:round; stroke-width:2; stroke-opacity:0.1; fill:none" points="232.389,1156.61 2352.76,1156.61 "/>
<polyline clip-path="url(#clip622)" style="stroke:#000000; stroke-linecap:round; stroke-linejoin:round; stroke-width:2; stroke-opacity:0.1; fill:none" points="232.389,889.006 2352.76,889.006 "/>
<polyline clip-path="url(#clip622)" style="stroke:#000000; stroke-linecap:round; stroke-linejoin:round; stroke-width:2; stroke-opacity:0.1; fill:none" points="232.389,621.399 2352.76,621.399 "/>
<polyline clip-path="url(#clip622)" style="stroke:#000000; stroke-linecap:round; stroke-linejoin:round; stroke-width:2; stroke-opacity:0.1; fill:none" points="232.389,353.792 2352.76,353.792 "/>
<polyline clip-path="url(#clip622)" style="stroke:#000000; stroke-linecap:round; stroke-linejoin:round; stroke-width:2; stroke-opacity:0.1; fill:none" points="232.389,86.1857 2352.76,86.1857 "/>
<polyline clip-path="url(#clip620)" style="stroke:#000000; stroke-linecap:round; stroke-linejoin:round; stroke-width:4; stroke-opacity:1; fill:none" points="232.389,1423.18 2352.76,1423.18 "/>
<polyline clip-path="url(#clip620)" style="stroke:#000000; stroke-linecap:round; stroke-linejoin:round; stroke-width:4; stroke-opacity:1; fill:none" points="232.389,47.2441 2352.76,47.2441 "/>
<polyline clip-path="url(#clip620)" style="stroke:#000000; stroke-linecap:round; stroke-linejoin:round; stroke-width:4; stroke-opacity:1; fill:none" points="289.686,1423.18 289.686,1404.28 "/>
<polyline clip-path="url(#clip620)" style="stroke:#000000; stroke-linecap:round; stroke-linejoin:round; stroke-width:4; stroke-opacity:1; fill:none" points="832.52,1423.18 832.52,1404.28 "/>
<polyline clip-path="url(#clip620)" style="stroke:#000000; stroke-linecap:round; stroke-linejoin:round; stroke-width:4; stroke-opacity:1; fill:none" points="1375.35,1423.18 1375.35,1404.28 "/>
<polyline clip-path="url(#clip620)" style="stroke:#000000; stroke-linecap:round; stroke-linejoin:round; stroke-width:4; stroke-opacity:1; fill:none" points="1918.19,1423.18 1918.19,1404.28 "/>
<polyline clip-path="url(#clip620)" style="stroke:#000000; stroke-linecap:round; stroke-linejoin:round; stroke-width:4; stroke-opacity:1; fill:none" points="289.686,47.2441 289.686,66.1417 "/>
<polyline clip-path="url(#clip620)" style="stroke:#000000; stroke-linecap:round; stroke-linejoin:round; stroke-width:4; stroke-opacity:1; fill:none" points="832.52,47.2441 832.52,66.1417 "/>
<polyline clip-path="url(#clip620)" style="stroke:#000000; stroke-linecap:round; stroke-linejoin:round; stroke-width:4; stroke-opacity:1; fill:none" points="1375.35,47.2441 1375.35,66.1417 "/>
<polyline clip-path="url(#clip620)" style="stroke:#000000; stroke-linecap:round; stroke-linejoin:round; stroke-width:4; stroke-opacity:1; fill:none" points="1918.19,47.2441 1918.19,66.1417 "/>
<path clip-path="url(#clip620)" d="M289.686 1454.1 Q286.074 1454.1 284.246 1457.66 Q282.44 1461.2 282.44 1468.33 Q282.44 1475.44 284.246 1479.01 Q286.074 1482.55 289.686 1482.55 Q293.32 1482.55 295.125 1479.01 Q296.954 1475.44 296.954 1468.33 Q296.954 1461.2 295.125 1457.66 Q293.32 1454.1 289.686 1454.1 M289.686 1450.39 Q295.496 1450.39 298.551 1455 Q301.63 1459.58 301.63 1468.33 Q301.63 1477.06 298.551 1481.67 Q295.496 1486.25 289.686 1486.25 Q283.875 1486.25 280.797 1481.67 Q277.741 1477.06 277.741 1468.33 Q277.741 1459.58 280.797 1455 Q283.875 1450.39 289.686 1450.39 Z" fill="#000000" fill-rule="nonzero" fill-opacity="1" /><path clip-path="url(#clip620)" d="M796.213 1481.64 L812.532 1481.64 L812.532 1485.58 L790.588 1485.58 L790.588 1481.64 Q793.25 1478.89 797.833 1474.26 Q802.439 1469.61 803.62 1468.27 Q805.865 1465.74 806.745 1464.01 Q807.648 1462.25 807.648 1460.56 Q807.648 1457.8 805.703 1456.07 Q803.782 1454.33 800.68 1454.33 Q798.481 1454.33 796.027 1455.09 Q793.597 1455.86 790.819 1457.41 L790.819 1452.69 Q793.643 1451.55 796.097 1450.97 Q798.551 1450.39 800.588 1450.39 Q805.958 1450.39 809.152 1453.08 Q812.347 1455.77 812.347 1460.26 Q812.347 1462.39 811.537 1464.31 Q810.75 1466.2 808.643 1468.8 Q808.064 1469.47 804.963 1472.69 Q801.861 1475.88 796.213 1481.64 Z" fill="#000000" fill-rule="nonzero" fill-opacity="1" /><path clip-path="url(#clip620)" d="M832.347 1454.1 Q828.736 1454.1 826.907 1457.66 Q825.101 1461.2 825.101 1468.33 Q825.101 1475.44 826.907 1479.01 Q828.736 1482.55 832.347 1482.55 Q835.981 1482.55 837.786 1479.01 Q839.615 1475.44 839.615 1468.33 Q839.615 1461.2 837.786 1457.66 Q835.981 1454.1 832.347 1454.1 M832.347 1450.39 Q838.157 1450.39 841.212 1455 Q844.291 1459.58 844.291 1468.33 Q844.291 1477.06 841.212 1481.67 Q838.157 1486.25 832.347 1486.25 Q826.536 1486.25 823.458 1481.67 Q820.402 1477.06 820.402 1468.33 Q820.402 1459.58 823.458 1455 Q826.536 1450.39 832.347 1450.39 Z" fill="#000000" fill-rule="nonzero" fill-opacity="1" /><path clip-path="url(#clip620)" d="M862.508 1454.1 Q858.897 1454.1 857.069 1457.66 Q855.263 1461.2 855.263 1468.33 Q855.263 1475.44 857.069 1479.01 Q858.897 1482.55 862.508 1482.55 Q866.143 1482.55 867.948 1479.01 Q869.777 1475.44 869.777 1468.33 Q869.777 1461.2 867.948 1457.66 Q866.143 1454.1 862.508 1454.1 M862.508 1450.39 Q868.319 1450.39 871.374 1455 Q874.453 1459.58 874.453 1468.33 Q874.453 1477.06 871.374 1481.67 Q868.319 1486.25 862.508 1486.25 Q856.698 1486.25 853.62 1481.67 Q850.564 1477.06 850.564 1468.33 Q850.564 1459.58 853.62 1455 Q856.698 1450.39 862.508 1450.39 Z" fill="#000000" fill-rule="nonzero" fill-opacity="1" /><path clip-path="url(#clip620)" d="M1348.45 1455.09 L1336.64 1473.54 L1348.45 1473.54 L1348.45 1455.09 M1347.22 1451.02 L1353.1 1451.02 L1353.1 1473.54 L1358.03 1473.54 L1358.03 1477.43 L1353.1 1477.43 L1353.1 1485.58 L1348.45 1485.58 L1348.45 1477.43 L1332.84 1477.43 L1332.84 1472.92 L1347.22 1451.02 Z" fill="#000000" fill-rule="nonzero" fill-opacity="1" /><path clip-path="url(#clip620)" d="M1375.76 1454.1 Q1372.15 1454.1 1370.32 1457.66 Q1368.51 1461.2 1368.51 1468.33 Q1368.51 1475.44 1370.32 1479.01 Q1372.15 1482.55 1375.76 1482.55 Q1379.39 1482.55 1381.2 1479.01 Q1383.03 1475.44 1383.03 1468.33 Q1383.03 1461.2 1381.2 1457.66 Q1379.39 1454.1 1375.76 1454.1 M1375.76 1450.39 Q1381.57 1450.39 1384.63 1455 Q1387.7 1459.58 1387.7 1468.33 Q1387.7 1477.06 1384.63 1481.67 Q1381.57 1486.25 1375.76 1486.25 Q1369.95 1486.25 1366.87 1481.67 Q1363.82 1477.06 1363.82 1468.33 Q1363.82 1459.58 1366.87 1455 Q1369.95 1450.39 1375.76 1450.39 Z" fill="#000000" fill-rule="nonzero" fill-opacity="1" /><path clip-path="url(#clip620)" d="M1405.92 1454.1 Q1402.31 1454.1 1400.48 1457.66 Q1398.68 1461.2 1398.68 1468.33 Q1398.68 1475.44 1400.48 1479.01 Q1402.31 1482.55 1405.92 1482.55 Q1409.56 1482.55 1411.36 1479.01 Q1413.19 1475.44 1413.19 1468.33 Q1413.19 1461.2 1411.36 1457.66 Q1409.56 1454.1 1405.92 1454.1 M1405.92 1450.39 Q1411.73 1450.39 1414.79 1455 Q1417.87 1459.58 1417.87 1468.33 Q1417.87 1477.06 1414.79 1481.67 Q1411.73 1486.25 1405.92 1486.25 Q1400.11 1486.25 1397.03 1481.67 Q1393.98 1477.06 1393.98 1468.33 Q1393.98 1459.58 1397.03 1455 Q1400.11 1450.39 1405.92 1450.39 Z" fill="#000000" fill-rule="nonzero" fill-opacity="1" /><path clip-path="url(#clip620)" d="M1888.51 1466.44 Q1885.37 1466.44 1883.51 1468.59 Q1881.69 1470.74 1881.69 1474.49 Q1881.69 1478.22 1883.51 1480.39 Q1885.37 1482.55 1888.51 1482.55 Q1891.66 1482.55 1893.49 1480.39 Q1895.34 1478.22 1895.34 1474.49 Q1895.34 1470.74 1893.49 1468.59 Q1891.66 1466.44 1888.51 1466.44 M1897.8 1451.78 L1897.8 1456.04 Q1896.04 1455.21 1894.23 1454.77 Q1892.45 1454.33 1890.69 1454.33 Q1886.06 1454.33 1883.61 1457.45 Q1881.18 1460.58 1880.83 1466.9 Q1882.19 1464.89 1884.25 1463.82 Q1886.31 1462.73 1888.79 1462.73 Q1894 1462.73 1897.01 1465.9 Q1900.04 1469.05 1900.04 1474.49 Q1900.04 1479.82 1896.89 1483.03 Q1893.75 1486.25 1888.51 1486.25 Q1882.52 1486.25 1879.35 1481.67 Q1876.18 1477.06 1876.18 1468.33 Q1876.18 1460.14 1880.06 1455.28 Q1883.95 1450.39 1890.5 1450.39 Q1892.26 1450.39 1894.05 1450.74 Q1895.85 1451.09 1897.8 1451.78 Z" fill="#000000" fill-rule="nonzero" fill-opacity="1" /><path clip-path="url(#clip620)" d="M1918.1 1454.1 Q1914.49 1454.1 1912.66 1457.66 Q1910.85 1461.2 1910.85 1468.33 Q1910.85 1475.44 1912.66 1479.01 Q1914.49 1482.55 1918.1 1482.55 Q1921.73 1482.55 1923.54 1479.01 Q1925.37 1475.44 1925.37 1468.33 Q1925.37 1461.2 1923.54 1457.66 Q1921.73 1454.1 1918.1 1454.1 M1918.1 1450.39 Q1923.91 1450.39 1926.96 1455 Q1930.04 1459.58 1930.04 1468.33 Q1930.04 1477.06 1926.96 1481.67 Q1923.91 1486.25 1918.1 1486.25 Q1912.29 1486.25 1909.21 1481.67 Q1906.15 1477.06 1906.15 1468.33 Q1906.15 1459.58 1909.21 1455 Q1912.29 1450.39 1918.1 1450.39 Z" fill="#000000" fill-rule="nonzero" fill-opacity="1" /><path clip-path="url(#clip620)" d="M1948.26 1454.1 Q1944.65 1454.1 1942.82 1457.66 Q1941.01 1461.2 1941.01 1468.33 Q1941.01 1475.44 1942.82 1479.01 Q1944.65 1482.55 1948.26 1482.55 Q1951.89 1482.55 1953.7 1479.01 Q1955.53 1475.44 1955.53 1468.33 Q1955.53 1461.2 1953.7 1457.66 Q1951.89 1454.1 1948.26 1454.1 M1948.26 1450.39 Q1954.07 1450.39 1957.12 1455 Q1960.2 1459.58 1960.2 1468.33 Q1960.2 1477.06 1957.12 1481.67 Q1954.07 1486.25 1948.26 1486.25 Q1942.45 1486.25 1939.37 1481.67 Q1936.31 1477.06 1936.31 1468.33 Q1936.31 1459.58 1939.37 1455 Q1942.45 1450.39 1948.26 1450.39 Z" fill="#000000" fill-rule="nonzero" fill-opacity="1" /><path clip-path="url(#clip620)" d="M1115.19 1539.24 Q1117.39 1535.29 1120.44 1533.41 Q1123.5 1531.54 1127.64 1531.54 Q1133.21 1531.54 1136.23 1535.45 Q1139.25 1539.33 1139.25 1546.53 L1139.25 1568.04 L1133.37 1568.04 L1133.37 1546.72 Q1133.37 1541.59 1131.55 1539.11 Q1129.74 1536.63 1126.01 1536.63 Q1121.46 1536.63 1118.82 1539.65 Q1116.18 1542.68 1116.18 1547.9 L1116.18 1568.04 L1110.29 1568.04 L1110.29 1546.72 Q1110.29 1541.56 1108.48 1539.11 Q1106.66 1536.63 1102.87 1536.63 Q1098.39 1536.63 1095.74 1539.68 Q1093.1 1542.71 1093.1 1547.9 L1093.1 1568.04 L1087.21 1568.04 L1087.21 1532.4 L1093.1 1532.4 L1093.1 1537.93 Q1095.11 1534.66 1097.91 1533.1 Q1100.71 1531.54 1104.56 1531.54 Q1108.44 1531.54 1111.15 1533.51 Q1113.89 1535.48 1115.19 1539.24 Z" fill="#000000" fill-rule="nonzero" fill-opacity="1" /><path clip-path="url(#clip620)" d="M1164.75 1536.5 Q1160.04 1536.5 1157.3 1540.19 Q1154.56 1543.85 1154.56 1550.25 Q1154.56 1556.65 1157.27 1560.34 Q1160.01 1564 1164.75 1564 Q1169.43 1564 1172.17 1560.31 Q1174.9 1556.62 1174.9 1550.25 Q1174.9 1543.92 1172.17 1540.23 Q1169.43 1536.5 1164.75 1536.5 M1164.75 1531.54 Q1172.39 1531.54 1176.75 1536.5 Q1181.11 1541.47 1181.11 1550.25 Q1181.11 1559 1176.75 1564 Q1172.39 1568.97 1164.75 1568.97 Q1157.08 1568.97 1152.72 1564 Q1148.39 1559 1148.39 1550.25 Q1148.39 1541.47 1152.72 1536.5 Q1157.08 1531.54 1164.75 1531.54 Z" fill="#000000" fill-rule="nonzero" fill-opacity="1" /><path clip-path="url(#clip620)" d="M1214.27 1537.81 L1214.27 1518.52 L1220.13 1518.52 L1220.13 1568.04 L1214.27 1568.04 L1214.27 1562.7 Q1212.43 1565.88 1209.6 1567.44 Q1206.79 1568.97 1202.85 1568.97 Q1196.39 1568.97 1192.31 1563.81 Q1188.27 1558.65 1188.27 1550.25 Q1188.27 1541.85 1192.31 1536.69 Q1196.39 1531.54 1202.85 1531.54 Q1206.79 1531.54 1209.6 1533.1 Q1212.43 1534.62 1214.27 1537.81 M1194.32 1550.25 Q1194.32 1556.71 1196.96 1560.4 Q1199.63 1564.07 1204.28 1564.07 Q1208.93 1564.07 1211.6 1560.4 Q1214.27 1556.71 1214.27 1550.25 Q1214.27 1543.79 1211.6 1540.13 Q1208.93 1536.44 1204.28 1536.44 Q1199.63 1536.44 1196.96 1540.13 Q1194.32 1543.79 1194.32 1550.25 Z" fill="#000000" fill-rule="nonzero" fill-opacity="1" /><path clip-path="url(#clip620)" d="M1262.69 1548.76 L1262.69 1551.62 L1235.76 1551.62 Q1236.14 1557.67 1239.39 1560.85 Q1242.67 1564 1248.49 1564 Q1251.86 1564 1255.01 1563.17 Q1258.2 1562.35 1261.32 1560.69 L1261.32 1566.23 Q1258.17 1567.57 1254.86 1568.27 Q1251.55 1568.97 1248.14 1568.97 Q1239.61 1568.97 1234.61 1564 Q1229.65 1559.04 1229.65 1550.57 Q1229.65 1541.82 1234.36 1536.69 Q1239.1 1531.54 1247.12 1531.54 Q1254.31 1531.54 1258.48 1536.18 Q1262.69 1540.8 1262.69 1548.76 M1256.83 1547.04 Q1256.77 1542.23 1254.12 1539.37 Q1251.51 1536.5 1247.19 1536.5 Q1242.28 1536.5 1239.32 1539.27 Q1236.4 1542.04 1235.95 1547.07 L1256.83 1547.04 Z" fill="#000000" fill-rule="nonzero" fill-opacity="1" /><path clip-path="url(#clip620)" d="M1293.02 1532.4 L1298.87 1532.4 L1298.87 1568.04 L1293.02 1568.04 L1293.02 1532.4 M1293.02 1518.52 L1298.87 1518.52 L1298.87 1525.93 L1293.02 1525.93 L1293.02 1518.52 Z" fill="#000000" fill-rule="nonzero" fill-opacity="1" /><path clip-path="url(#clip620)" d="M1340.76 1546.53 L1340.76 1568.04 L1334.9 1568.04 L1334.9 1546.72 Q1334.9 1541.66 1332.93 1539.14 Q1330.96 1536.63 1327.01 1536.63 Q1322.27 1536.63 1319.53 1539.65 Q1316.79 1542.68 1316.79 1547.9 L1316.79 1568.04 L1310.91 1568.04 L1310.91 1532.4 L1316.79 1532.4 L1316.79 1537.93 Q1318.89 1534.72 1321.73 1533.13 Q1324.59 1531.54 1328.32 1531.54 Q1334.46 1531.54 1337.61 1535.36 Q1340.76 1539.14 1340.76 1546.53 Z" fill="#000000" fill-rule="nonzero" fill-opacity="1" /><path clip-path="url(#clip620)" d="M1375.9 1537.81 L1375.9 1518.52 L1381.76 1518.52 L1381.76 1568.04 L1375.9 1568.04 L1375.9 1562.7 Q1374.05 1565.88 1371.22 1567.44 Q1368.42 1568.97 1364.47 1568.97 Q1358.01 1568.97 1353.94 1563.81 Q1349.9 1558.65 1349.9 1550.25 Q1349.9 1541.85 1353.94 1536.69 Q1358.01 1531.54 1364.47 1531.54 Q1368.42 1531.54 1371.22 1533.1 Q1374.05 1534.62 1375.9 1537.81 M1355.94 1550.25 Q1355.94 1556.71 1358.59 1560.4 Q1361.26 1564.07 1365.91 1564.07 Q1370.55 1564.07 1373.23 1560.4 Q1375.9 1556.71 1375.9 1550.25 Q1375.9 1543.79 1373.23 1540.13 Q1370.55 1536.44 1365.91 1536.44 Q1361.26 1536.44 1358.59 1540.13 Q1355.94 1543.79 1355.94 1550.25 Z" fill="#000000" fill-rule="nonzero" fill-opacity="1" /><path clip-path="url(#clip620)" d="M1424.31 1548.76 L1424.31 1551.62 L1397.38 1551.62 Q1397.77 1557.67 1401.01 1560.85 Q1404.29 1564 1410.12 1564 Q1413.49 1564 1416.64 1563.17 Q1419.82 1562.35 1422.94 1560.69 L1422.94 1566.23 Q1419.79 1567.57 1416.48 1568.27 Q1413.17 1568.97 1409.77 1568.97 Q1401.24 1568.97 1396.24 1564 Q1391.27 1559.04 1391.27 1550.57 Q1391.27 1541.82 1395.98 1536.69 Q1400.73 1531.54 1408.75 1531.54 Q1415.94 1531.54 1420.11 1536.18 Q1424.31 1540.8 1424.31 1548.76 M1418.45 1547.04 Q1418.39 1542.23 1415.75 1539.37 Q1413.14 1536.5 1408.81 1536.5 Q1403.91 1536.5 1400.95 1539.27 Q1398.02 1542.04 1397.57 1547.07 L1418.45 1547.04 Z" fill="#000000" fill-rule="nonzero" fill-opacity="1" /><path clip-path="url(#clip620)" d="M1462.41 1532.4 L1449.52 1549.74 L1463.08 1568.04 L1456.17 1568.04 L1445.8 1554.04 L1435.42 1568.04 L1428.51 1568.04 L1442.36 1549.39 L1429.69 1532.4 L1436.6 1532.4 L1446.05 1545.1 L1455.5 1532.4 L1462.41 1532.4 Z" fill="#000000" fill-rule="nonzero" fill-opacity="1" /><path clip-path="url(#clip620)" d="M1492.07 1532.4 L1497.93 1532.4 L1497.93 1568.04 L1492.07 1568.04 L1492.07 1532.4 M1492.07 1518.52 L1497.93 1518.52 L1497.93 1525.93 L1492.07 1525.93 L1492.07 1518.52 Z" fill="#000000" fill-rule="nonzero" fill-opacity="1" /><polyline clip-path="url(#clip620)" style="stroke:#000000; stroke-linecap:round; stroke-linejoin:round; stroke-width:4; stroke-opacity:1; fill:none" points="232.389,1423.18 232.389,47.2441 "/>
<polyline clip-path="url(#clip620)" style="stroke:#000000; stroke-linecap:round; stroke-linejoin:round; stroke-width:4; stroke-opacity:1; fill:none" points="2352.76,1423.18 2352.76,47.2441 "/>
<polyline clip-path="url(#clip620)" style="stroke:#000000; stroke-linecap:round; stroke-linejoin:round; stroke-width:4; stroke-opacity:1; fill:none" points="232.389,1156.61 251.287,1156.61 "/>
<polyline clip-path="url(#clip620)" style="stroke:#000000; stroke-linecap:round; stroke-linejoin:round; stroke-width:4; stroke-opacity:1; fill:none" points="232.389,889.006 251.287,889.006 "/>
<polyline clip-path="url(#clip620)" style="stroke:#000000; stroke-linecap:round; stroke-linejoin:round; stroke-width:4; stroke-opacity:1; fill:none" points="232.389,621.399 251.287,621.399 "/>
<polyline clip-path="url(#clip620)" style="stroke:#000000; stroke-linecap:round; stroke-linejoin:round; stroke-width:4; stroke-opacity:1; fill:none" points="232.389,353.792 251.287,353.792 "/>
<polyline clip-path="url(#clip620)" style="stroke:#000000; stroke-linecap:round; stroke-linejoin:round; stroke-width:4; stroke-opacity:1; fill:none" points="232.389,86.1857 251.287,86.1857 "/>
<polyline clip-path="url(#clip620)" style="stroke:#000000; stroke-linecap:round; stroke-linejoin:round; stroke-width:4; stroke-opacity:1; fill:none" points="2352.76,1156.61 2333.86,1156.61 "/>
<polyline clip-path="url(#clip620)" style="stroke:#000000; stroke-linecap:round; stroke-linejoin:round; stroke-width:4; stroke-opacity:1; fill:none" points="2352.76,889.006 2333.86,889.006 "/>
<polyline clip-path="url(#clip620)" style="stroke:#000000; stroke-linecap:round; stroke-linejoin:round; stroke-width:4; stroke-opacity:1; fill:none" points="2352.76,621.399 2333.86,621.399 "/>
<polyline clip-path="url(#clip620)" style="stroke:#000000; stroke-linecap:round; stroke-linejoin:round; stroke-width:4; stroke-opacity:1; fill:none" points="2352.76,353.792 2333.86,353.792 "/>
<polyline clip-path="url(#clip620)" style="stroke:#000000; stroke-linecap:round; stroke-linejoin:round; stroke-width:4; stroke-opacity:1; fill:none" points="2352.76,86.1857 2333.86,86.1857 "/>
<path clip-path="url(#clip620)" d="M148.311 1169.96 L164.63 1169.96 L164.63 1173.89 L142.686 1173.89 L142.686 1169.96 Q145.348 1167.2 149.931 1162.57 Q154.538 1157.92 155.718 1156.58 Q157.964 1154.06 158.843 1152.32 Q159.746 1150.56 159.746 1148.87 Q159.746 1146.12 157.802 1144.38 Q155.88 1142.64 152.778 1142.64 Q150.579 1142.64 148.126 1143.41 Q145.695 1144.17 142.917 1145.72 L142.917 1141 Q145.741 1139.87 148.195 1139.29 Q150.649 1138.71 152.686 1138.71 Q158.056 1138.71 161.251 1141.39 Q164.445 1144.08 164.445 1148.57 Q164.445 1150.7 163.635 1152.62 Q162.848 1154.52 160.741 1157.11 Q160.163 1157.78 157.061 1161 Q153.959 1164.19 148.311 1169.96 Z" fill="#000000" fill-rule="nonzero" fill-opacity="1" /><path clip-path="url(#clip620)" d="M184.445 1142.41 Q180.834 1142.41 179.005 1145.98 Q177.2 1149.52 177.2 1156.65 Q177.2 1163.75 179.005 1167.32 Q180.834 1170.86 184.445 1170.86 Q188.079 1170.86 189.885 1167.32 Q191.713 1163.75 191.713 1156.65 Q191.713 1149.52 189.885 1145.98 Q188.079 1142.41 184.445 1142.41 M184.445 1138.71 Q190.255 1138.71 193.311 1143.31 Q196.389 1147.9 196.389 1156.65 Q196.389 1165.37 193.311 1169.98 Q190.255 1174.56 184.445 1174.56 Q178.635 1174.56 175.556 1169.98 Q172.501 1165.37 172.501 1156.65 Q172.501 1147.9 175.556 1143.31 Q178.635 1138.71 184.445 1138.71 Z" fill="#000000" fill-rule="nonzero" fill-opacity="1" /><path clip-path="url(#clip620)" d="M157.13 875.8 L145.325 894.249 L157.13 894.249 L157.13 875.8 M155.903 871.726 L161.783 871.726 L161.783 894.249 L166.714 894.249 L166.714 898.138 L161.783 898.138 L161.783 906.286 L157.13 906.286 L157.13 898.138 L141.529 898.138 L141.529 893.624 L155.903 871.726 Z" fill="#000000" fill-rule="nonzero" fill-opacity="1" /><path clip-path="url(#clip620)" d="M184.445 874.805 Q180.834 874.805 179.005 878.37 Q177.2 881.911 177.2 889.041 Q177.2 896.147 179.005 899.712 Q180.834 903.254 184.445 903.254 Q188.079 903.254 189.885 899.712 Q191.713 896.147 191.713 889.041 Q191.713 881.911 189.885 878.37 Q188.079 874.805 184.445 874.805 M184.445 871.101 Q190.255 871.101 193.311 875.708 Q196.389 880.291 196.389 889.041 Q196.389 897.768 193.311 902.374 Q190.255 906.957 184.445 906.957 Q178.635 906.957 175.556 902.374 Q172.501 897.768 172.501 889.041 Q172.501 880.291 175.556 875.708 Q178.635 871.101 184.445 871.101 Z" fill="#000000" fill-rule="nonzero" fill-opacity="1" /><path clip-path="url(#clip620)" d="M154.862 619.536 Q151.714 619.536 149.862 621.689 Q148.033 623.841 148.033 627.591 Q148.033 631.318 149.862 633.494 Q151.714 635.647 154.862 635.647 Q158.01 635.647 159.839 633.494 Q161.69 631.318 161.69 627.591 Q161.69 623.841 159.839 621.689 Q158.01 619.536 154.862 619.536 M164.144 604.883 L164.144 609.142 Q162.385 608.309 160.579 607.869 Q158.797 607.429 157.038 607.429 Q152.408 607.429 149.954 610.554 Q147.524 613.679 147.177 619.999 Q148.542 617.985 150.603 616.92 Q152.663 615.832 155.14 615.832 Q160.348 615.832 163.357 619.003 Q166.39 622.152 166.39 627.591 Q166.39 632.915 163.241 636.133 Q160.093 639.351 154.862 639.351 Q148.866 639.351 145.695 634.767 Q142.524 630.161 142.524 621.434 Q142.524 613.24 146.413 608.379 Q150.302 603.494 156.853 603.494 Q158.612 603.494 160.394 603.842 Q162.2 604.189 164.144 604.883 Z" fill="#000000" fill-rule="nonzero" fill-opacity="1" /><path clip-path="url(#clip620)" d="M184.445 607.198 Q180.834 607.198 179.005 610.763 Q177.2 614.304 177.2 621.434 Q177.2 628.54 179.005 632.105 Q180.834 635.647 184.445 635.647 Q188.079 635.647 189.885 632.105 Q191.713 628.54 191.713 621.434 Q191.713 614.304 189.885 610.763 Q188.079 607.198 184.445 607.198 M184.445 603.494 Q190.255 603.494 193.311 608.101 Q196.389 612.684 196.389 621.434 Q196.389 630.161 193.311 634.767 Q190.255 639.351 184.445 639.351 Q178.635 639.351 175.556 634.767 Q172.501 630.161 172.501 621.434 Q172.501 612.684 175.556 608.101 Q178.635 603.494 184.445 603.494 Z" fill="#000000" fill-rule="nonzero" fill-opacity="1" /><path clip-path="url(#clip620)" d="M154.283 354.661 Q150.95 354.661 149.028 356.443 Q147.13 358.225 147.13 361.35 Q147.13 364.475 149.028 366.258 Q150.95 368.04 154.283 368.04 Q157.616 368.04 159.538 366.258 Q161.459 364.452 161.459 361.35 Q161.459 358.225 159.538 356.443 Q157.64 354.661 154.283 354.661 M149.607 352.67 Q146.598 351.929 144.908 349.869 Q143.241 347.809 143.241 344.846 Q143.241 340.702 146.181 338.295 Q149.144 335.887 154.283 335.887 Q159.445 335.887 162.385 338.295 Q165.325 340.702 165.325 344.846 Q165.325 347.809 163.635 349.869 Q161.968 351.929 158.982 352.67 Q162.362 353.457 164.237 355.748 Q166.135 358.04 166.135 361.35 Q166.135 366.373 163.056 369.059 Q160.001 371.744 154.283 371.744 Q148.566 371.744 145.487 369.059 Q142.431 366.373 142.431 361.35 Q142.431 358.04 144.329 355.748 Q146.228 353.457 149.607 352.67 M147.894 345.286 Q147.894 347.971 149.561 349.475 Q151.251 350.98 154.283 350.98 Q157.292 350.98 158.982 349.475 Q160.695 347.971 160.695 345.286 Q160.695 342.6 158.982 341.096 Q157.292 339.591 154.283 339.591 Q151.251 339.591 149.561 341.096 Q147.894 342.6 147.894 345.286 Z" fill="#000000" fill-rule="nonzero" fill-opacity="1" /><path clip-path="url(#clip620)" d="M184.445 339.591 Q180.834 339.591 179.005 343.156 Q177.2 346.698 177.2 353.827 Q177.2 360.934 179.005 364.498 Q180.834 368.04 184.445 368.04 Q188.079 368.04 189.885 364.498 Q191.713 360.934 191.713 353.827 Q191.713 346.698 189.885 343.156 Q188.079 339.591 184.445 339.591 M184.445 335.887 Q190.255 335.887 193.311 340.494 Q196.389 345.077 196.389 353.827 Q196.389 362.554 193.311 367.16 Q190.255 371.744 184.445 371.744 Q178.635 371.744 175.556 367.16 Q172.501 362.554 172.501 353.827 Q172.501 345.077 175.556 340.494 Q178.635 335.887 184.445 335.887 Z" fill="#000000" fill-rule="nonzero" fill-opacity="1" /><path clip-path="url(#clip620)" d="M114.931 99.5305 L122.57 99.5305 L122.57 73.1649 L114.26 74.8316 L114.26 70.5723 L122.524 68.9057 L127.2 68.9057 L127.2 99.5305 L134.839 99.5305 L134.839 103.466 L114.931 103.466 L114.931 99.5305 Z" fill="#000000" fill-rule="nonzero" fill-opacity="1" /><path clip-path="url(#clip620)" d="M154.283 71.9844 Q150.672 71.9844 148.843 75.5492 Q147.038 79.0908 147.038 86.2204 Q147.038 93.3268 148.843 96.8916 Q150.672 100.433 154.283 100.433 Q157.917 100.433 159.723 96.8916 Q161.552 93.3268 161.552 86.2204 Q161.552 79.0908 159.723 75.5492 Q157.917 71.9844 154.283 71.9844 M154.283 68.2807 Q160.093 68.2807 163.149 72.8871 Q166.227 77.4704 166.227 86.2204 Q166.227 94.9472 163.149 99.5537 Q160.093 104.137 154.283 104.137 Q148.473 104.137 145.394 99.5537 Q142.339 94.9472 142.339 86.2204 Q142.339 77.4704 145.394 72.8871 Q148.473 68.2807 154.283 68.2807 Z" fill="#000000" fill-rule="nonzero" fill-opacity="1" /><path clip-path="url(#clip620)" d="M184.445 71.9844 Q180.834 71.9844 179.005 75.5492 Q177.2 79.0908 177.2 86.2204 Q177.2 93.3268 179.005 96.8916 Q180.834 100.433 184.445 100.433 Q188.079 100.433 189.885 96.8916 Q191.713 93.3268 191.713 86.2204 Q191.713 79.0908 189.885 75.5492 Q188.079 71.9844 184.445 71.9844 M184.445 68.2807 Q190.255 68.2807 193.311 72.8871 Q196.389 77.4704 196.389 86.2204 Q196.389 94.9472 193.311 99.5537 Q190.255 104.137 184.445 104.137 Q178.635 104.137 175.556 99.5537 Q172.501 94.9472 172.501 86.2204 Q172.501 77.4704 175.556 72.8871 Q178.635 68.2807 184.445 68.2807 Z" fill="#000000" fill-rule="nonzero" fill-opacity="1" /><path clip-path="url(#clip620)" d="M20.1444 1294.04 L26.9239 1294.04 Q23.9002 1297.29 22.4043 1300.98 Q20.9083 1304.64 20.9083 1308.78 Q20.9083 1316.93 25.9054 1321.25 Q30.8707 1325.58 40.2919 1325.58 Q49.6813 1325.58 54.6784 1321.25 Q59.6436 1316.93 59.6436 1308.78 Q59.6436 1304.64 58.1477 1300.98 Q56.6518 1297.29 53.6281 1294.04 L60.3439 1294.04 Q62.6355 1297.42 63.7814 1301.2 Q64.9272 1304.96 64.9272 1309.16 Q64.9272 1319.95 58.3387 1326.16 Q51.7183 1332.36 40.2919 1332.36 Q28.8336 1332.36 22.2451 1326.16 Q15.6248 1319.95 15.6248 1309.16 Q15.6248 1304.89 16.7706 1301.14 Q17.8846 1297.35 20.1444 1294.04 Z" fill="#000000" fill-rule="nonzero" fill-opacity="1" /><path clip-path="url(#clip620)" d="M49.9359 1284.97 L28.3562 1284.97 L28.3562 1279.11 L49.7131 1279.11 Q54.7739 1279.11 57.3202 1277.14 Q59.8346 1275.17 59.8346 1271.22 Q59.8346 1266.48 56.8109 1263.74 Q53.7872 1260.97 48.5673 1260.97 L28.3562 1260.97 L28.3562 1255.12 L64.0042 1255.12 L64.0042 1260.97 L58.5296 1260.97 Q61.7762 1263.1 63.3676 1265.94 Q64.9272 1268.74 64.9272 1272.46 Q64.9272 1278.6 61.1078 1281.79 Q57.2883 1284.97 49.9359 1284.97 M27.4968 1270.23 L27.4968 1270.23 Z" fill="#000000" fill-rule="nonzero" fill-opacity="1" /><path clip-path="url(#clip620)" d="M35.1993 1215.3 Q31.2526 1213.1 29.3747 1210.05 Q27.4968 1206.99 27.4968 1202.85 Q27.4968 1197.28 31.4117 1194.26 Q35.2948 1191.24 42.4881 1191.24 L64.0042 1191.24 L64.0042 1197.12 L42.679 1197.12 Q37.5546 1197.12 35.072 1198.94 Q32.5894 1200.75 32.5894 1204.48 Q32.5894 1209.03 35.6131 1211.67 Q38.6368 1214.31 43.8567 1214.31 L64.0042 1214.31 L64.0042 1220.2 L42.679 1220.2 Q37.5228 1220.2 35.072 1222.01 Q32.5894 1223.83 32.5894 1227.62 Q32.5894 1232.1 35.6449 1234.74 Q38.6686 1237.39 43.8567 1237.39 L64.0042 1237.39 L64.0042 1243.27 L28.3562 1243.27 L28.3562 1237.39 L33.8944 1237.39 Q30.616 1235.38 29.0564 1232.58 Q27.4968 1229.78 27.4968 1225.93 Q27.4968 1222.05 29.4702 1219.34 Q31.4436 1216.6 35.1993 1215.3 Z" fill="#000000" fill-rule="nonzero" fill-opacity="1" /><path clip-path="url(#clip620)" d="M49.9359 1180.16 L28.3562 1180.16 L28.3562 1174.3 L49.7131 1174.3 Q54.7739 1174.3 57.3202 1172.33 Q59.8346 1170.36 59.8346 1166.41 Q59.8346 1161.67 56.8109 1158.93 Q53.7872 1156.16 48.5673 1156.16 L28.3562 1156.16 L28.3562 1150.3 L64.0042 1150.3 L64.0042 1156.16 L58.5296 1156.16 Q61.7762 1158.29 63.3676 1161.13 Q64.9272 1163.93 64.9272 1167.65 Q64.9272 1173.79 61.1078 1176.98 Q57.2883 1180.16 49.9359 1180.16 M27.4968 1165.42 L27.4968 1165.42 Z" fill="#000000" fill-rule="nonzero" fill-opacity="1" /><path clip-path="url(#clip620)" d="M14.479 1138.24 L14.479 1132.38 L64.0042 1132.38 L64.0042 1138.24 L14.479 1138.24 Z" fill="#000000" fill-rule="nonzero" fill-opacity="1" /><path clip-path="url(#clip620)" d="M46.0847 1103.93 Q46.0847 1111.03 47.7079 1113.76 Q49.3312 1116.5 53.2461 1116.5 Q56.3653 1116.5 58.2114 1114.46 Q60.0256 1112.4 60.0256 1108.86 Q60.0256 1103.99 56.5881 1101.07 Q53.1188 1098.1 47.3897 1098.1 L46.0847 1098.1 L46.0847 1103.93 M43.6657 1092.25 L64.0042 1092.25 L64.0042 1098.1 L58.5933 1098.1 Q61.8398 1100.11 63.3994 1103.1 Q64.9272 1106.09 64.9272 1110.42 Q64.9272 1115.9 61.8716 1119.14 Q58.7843 1122.36 53.6281 1122.36 Q47.6125 1122.36 44.5569 1118.35 Q41.5014 1114.31 41.5014 1106.32 L41.5014 1098.1 L40.9285 1098.1 Q36.8862 1098.1 34.6901 1100.78 Q32.4621 1103.42 32.4621 1108.23 Q32.4621 1111.28 33.1941 1114.18 Q33.9262 1117.07 35.3903 1119.75 L29.9795 1119.75 Q28.7381 1116.53 28.1334 1113.51 Q27.4968 1110.49 27.4968 1107.62 Q27.4968 1099.89 31.5072 1096.07 Q35.5176 1092.25 43.6657 1092.25 Z" fill="#000000" fill-rule="nonzero" fill-opacity="1" /><path clip-path="url(#clip620)" d="M18.2347 1074.39 L28.3562 1074.39 L28.3562 1062.33 L32.9077 1062.33 L32.9077 1074.39 L52.2594 1074.39 Q56.6199 1074.39 57.8613 1073.22 Q59.1026 1072.01 59.1026 1068.35 L59.1026 1062.33 L64.0042 1062.33 L64.0042 1068.35 Q64.0042 1075.12 61.4897 1077.7 Q58.9434 1080.28 52.2594 1080.28 L32.9077 1080.28 L32.9077 1084.58 L28.3562 1084.58 L28.3562 1080.28 L18.2347 1080.28 L18.2347 1074.39 Z" fill="#000000" fill-rule="nonzero" fill-opacity="1" /><path clip-path="url(#clip620)" d="M28.3562 1054.63 L28.3562 1048.77 L64.0042 1048.77 L64.0042 1054.63 L28.3562 1054.63 M14.479 1054.63 L14.479 1048.77 L21.895 1048.77 L21.895 1054.63 L14.479 1054.63 Z" fill="#000000" fill-rule="nonzero" fill-opacity="1" /><path clip-path="url(#clip620)" d="M28.3562 1040.72 L28.3562 1034.51 L58.275 1023.37 L28.3562 1012.23 L28.3562 1006.03 L64.0042 1019.39 L64.0042 1027.35 L28.3562 1040.72 Z" fill="#000000" fill-rule="nonzero" fill-opacity="1" /><path clip-path="url(#clip620)" d="M44.7161 967.449 L47.5806 967.449 L47.5806 994.376 Q53.6281 993.994 56.8109 990.747 Q59.9619 987.469 59.9619 981.644 Q59.9619 978.271 59.1344 975.12 Q58.3069 971.937 56.6518 968.817 L62.1899 968.817 Q63.5267 971.969 64.227 975.279 Q64.9272 978.589 64.9272 981.995 Q64.9272 990.525 59.9619 995.522 Q54.9967 1000.49 46.5303 1000.49 Q37.7774 1000.49 32.6531 995.776 Q27.4968 991.034 27.4968 983.013 Q27.4968 975.82 32.1438 971.65 Q36.7589 967.449 44.7161 967.449 M42.9973 973.305 Q38.1912 973.369 35.3266 976.011 Q32.4621 978.621 32.4621 982.949 Q32.4621 987.851 35.2312 990.811 Q38.0002 993.739 43.0292 994.185 L42.9973 973.305 Z" fill="#000000" fill-rule="nonzero" fill-opacity="1" /><path clip-path="url(#clip620)" d="M44.7161 906.625 L47.5806 906.625 L47.5806 933.551 Q53.6281 933.17 56.8109 929.923 Q59.9619 926.645 59.9619 920.82 Q59.9619 917.446 59.1344 914.295 Q58.3069 911.112 56.6518 907.993 L62.1899 907.993 Q63.5267 911.144 64.227 914.454 Q64.9272 917.765 64.9272 921.17 Q64.9272 929.7 59.9619 934.697 Q54.9967 939.663 46.5303 939.663 Q37.7774 939.663 32.6531 934.952 Q27.4968 930.209 27.4968 922.189 Q27.4968 914.995 32.1438 910.826 Q36.7589 906.625 44.7161 906.625 M42.9973 912.481 Q38.1912 912.545 35.3266 915.186 Q32.4621 917.796 32.4621 922.125 Q32.4621 927.027 35.2312 929.987 Q38.0002 932.915 43.0292 933.361 L42.9973 912.481 Z" fill="#000000" fill-rule="nonzero" fill-opacity="1" /><path clip-path="url(#clip620)" d="M28.3562 868.526 L45.7028 881.416 L64.0042 867.857 L64.0042 874.764 L49.9996 885.14 L64.0042 895.516 L64.0042 902.423 L45.3526 888.578 L28.3562 901.246 L28.3562 894.339 L41.0558 884.886 L28.3562 875.433 L28.3562 868.526 Z" fill="#000000" fill-rule="nonzero" fill-opacity="1" /><path clip-path="url(#clip620)" d="M58.657 853.916 L77.5631 853.916 L77.5631 859.805 L28.3562 859.805 L28.3562 853.916 L33.7671 853.916 Q30.5842 852.07 29.0564 849.27 Q27.4968 846.437 27.4968 842.522 Q27.4968 836.029 32.6531 831.987 Q37.8093 827.913 46.212 827.913 Q54.6147 827.913 59.771 831.987 Q64.9272 836.029 64.9272 842.522 Q64.9272 846.437 63.3994 849.27 Q61.8398 852.07 58.657 853.916 M46.212 833.992 Q39.7508 833.992 36.0905 836.665 Q32.3984 839.307 32.3984 843.954 Q32.3984 848.601 36.0905 851.275 Q39.7508 853.916 46.212 853.916 Q52.6732 853.916 56.3653 851.275 Q60.0256 848.601 60.0256 843.954 Q60.0256 839.307 56.3653 836.665 Q52.6732 833.992 46.212 833.992 Z" fill="#000000" fill-rule="nonzero" fill-opacity="1" /><path clip-path="url(#clip620)" d="M14.479 818.205 L14.479 812.348 L64.0042 812.348 L64.0042 818.205 L14.479 818.205 Z" fill="#000000" fill-rule="nonzero" fill-opacity="1" /><path clip-path="url(#clip620)" d="M46.0847 783.894 Q46.0847 790.991 47.7079 793.729 Q49.3312 796.466 53.2461 796.466 Q56.3653 796.466 58.2114 794.429 Q60.0256 792.36 60.0256 788.827 Q60.0256 783.957 56.5881 781.029 Q53.1188 778.069 47.3897 778.069 L46.0847 778.069 L46.0847 783.894 M43.6657 772.213 L64.0042 772.213 L64.0042 778.069 L58.5933 778.069 Q61.8398 780.074 63.3994 783.066 Q64.9272 786.058 64.9272 790.387 Q64.9272 795.861 61.8716 799.108 Q58.7843 802.322 53.6281 802.322 Q47.6125 802.322 44.5569 798.312 Q41.5014 794.27 41.5014 786.281 L41.5014 778.069 L40.9285 778.069 Q36.8862 778.069 34.6901 780.743 Q32.4621 783.384 32.4621 788.191 Q32.4621 791.246 33.1941 794.142 Q33.9262 797.039 35.3903 799.712 L29.9795 799.712 Q28.7381 796.498 28.1334 793.474 Q27.4968 790.45 27.4968 787.586 Q27.4968 779.851 31.5072 776.032 Q35.5176 772.213 43.6657 772.213 Z" fill="#000000" fill-rule="nonzero" fill-opacity="1" /><path clip-path="url(#clip620)" d="M28.3562 760.15 L28.3562 754.293 L64.0042 754.293 L64.0042 760.15 L28.3562 760.15 M14.479 760.15 L14.479 754.293 L21.895 754.293 L21.895 760.15 L14.479 760.15 Z" fill="#000000" fill-rule="nonzero" fill-opacity="1" /><path clip-path="url(#clip620)" d="M42.4881 712.407 L64.0042 712.407 L64.0042 718.263 L42.679 718.263 Q37.6183 718.263 35.1038 720.237 Q32.5894 722.21 32.5894 726.157 Q32.5894 730.899 35.6131 733.636 Q38.6368 736.374 43.8567 736.374 L64.0042 736.374 L64.0042 742.262 L28.3562 742.262 L28.3562 736.374 L33.8944 736.374 Q30.6797 734.273 29.0883 731.44 Q27.4968 728.576 27.4968 724.852 Q27.4968 718.709 31.3163 715.558 Q35.1038 712.407 42.4881 712.407 Z" fill="#000000" fill-rule="nonzero" fill-opacity="1" /><path clip-path="url(#clip620)" d="M44.7161 670.234 L47.5806 670.234 L47.5806 697.161 Q53.6281 696.779 56.8109 693.533 Q59.9619 690.254 59.9619 684.43 Q59.9619 681.056 59.1344 677.905 Q58.3069 674.722 56.6518 671.603 L62.1899 671.603 Q63.5267 674.754 64.227 678.064 Q64.9272 681.374 64.9272 684.78 Q64.9272 693.31 59.9619 698.307 Q54.9967 703.272 46.5303 703.272 Q37.7774 703.272 32.6531 698.561 Q27.4968 693.819 27.4968 685.798 Q27.4968 678.605 32.1438 674.435 Q36.7589 670.234 44.7161 670.234 M42.9973 676.09 Q38.1912 676.154 35.3266 678.796 Q32.4621 681.406 32.4621 685.735 Q32.4621 690.636 35.2312 693.596 Q38.0002 696.524 43.0292 696.97 L42.9973 676.09 Z" fill="#000000" fill-rule="nonzero" fill-opacity="1" /><path clip-path="url(#clip620)" d="M33.7671 637.164 L14.479 637.164 L14.479 631.308 L64.0042 631.308 L64.0042 637.164 L58.657 637.164 Q61.8398 639.01 63.3994 641.843 Q64.9272 644.644 64.9272 648.591 Q64.9272 655.052 59.771 659.126 Q54.6147 663.168 46.212 663.168 Q37.8093 663.168 32.6531 659.126 Q27.4968 655.052 27.4968 648.591 Q27.4968 644.644 29.0564 641.843 Q30.5842 639.01 33.7671 637.164 M46.212 657.121 Q52.6732 657.121 56.3653 654.479 Q60.0256 651.805 60.0256 647.158 Q60.0256 642.511 56.3653 639.838 Q52.6732 637.164 46.212 637.164 Q39.7508 637.164 36.0905 639.838 Q32.3984 642.511 32.3984 647.158 Q32.3984 651.805 36.0905 654.479 Q39.7508 657.121 46.212 657.121 Z" fill="#000000" fill-rule="nonzero" fill-opacity="1" /><path clip-path="url(#clip620)" d="M46.212 572.934 Q39.7508 572.934 36.0905 575.608 Q32.3984 578.25 32.3984 582.897 Q32.3984 587.543 36.0905 590.217 Q39.7508 592.859 46.212 592.859 Q52.6732 592.859 56.3653 590.217 Q60.0256 587.543 60.0256 582.897 Q60.0256 578.25 56.3653 575.608 Q52.6732 572.934 46.212 572.934 M33.7671 592.859 Q30.5842 591.013 29.0564 588.212 Q27.4968 585.379 27.4968 581.464 Q27.4968 574.971 32.6531 570.929 Q37.8093 566.855 46.212 566.855 Q54.6147 566.855 59.771 570.929 Q64.9272 574.971 64.9272 581.464 Q64.9272 585.379 63.3994 588.212 Q61.8398 591.013 58.657 592.859 L64.0042 592.859 L64.0042 598.747 L14.479 598.747 L14.479 592.859 L33.7671 592.859 Z" fill="#000000" fill-rule="nonzero" fill-opacity="1" /><path clip-path="url(#clip620)" d="M67.3143 542.315 Q73.68 544.798 75.6216 547.153 Q77.5631 549.508 77.5631 553.455 L77.5631 558.134 L72.6615 558.134 L72.6615 554.696 Q72.6615 552.277 71.5157 550.941 Q70.3699 549.604 66.1048 547.981 L63.4312 546.93 L28.3562 561.349 L28.3562 555.142 L56.238 544.002 L28.3562 532.862 L28.3562 526.656 L67.3143 542.315 Z" fill="#000000" fill-rule="nonzero" fill-opacity="1" /><path clip-path="url(#clip620)" d="M35.1993 470.096 Q31.2526 467.9 29.3747 464.844 Q27.4968 461.789 27.4968 457.651 Q27.4968 452.081 31.4117 449.058 Q35.2948 446.034 42.4881 446.034 L64.0042 446.034 L64.0042 451.922 L42.679 451.922 Q37.5546 451.922 35.072 453.736 Q32.5894 455.551 32.5894 459.275 Q32.5894 463.826 35.6131 466.468 Q38.6368 469.11 43.8567 469.11 L64.0042 469.11 L64.0042 474.998 L42.679 474.998 Q37.5228 474.998 35.072 476.812 Q32.5894 478.626 32.5894 482.414 Q32.5894 486.902 35.6449 489.543 Q38.6686 492.185 43.8567 492.185 L64.0042 492.185 L64.0042 498.073 L28.3562 498.073 L28.3562 492.185 L33.8944 492.185 Q30.616 490.18 29.0564 487.379 Q27.4968 484.578 27.4968 480.727 Q27.4968 476.844 29.4702 474.138 Q31.4436 471.401 35.1993 470.096 Z" fill="#000000" fill-rule="nonzero" fill-opacity="1" /><path clip-path="url(#clip620)" d="M32.4621 420.539 Q32.4621 425.25 36.1542 427.987 Q39.8145 430.724 46.212 430.724 Q52.6095 430.724 56.3017 428.019 Q59.9619 425.282 59.9619 420.539 Q59.9619 415.86 56.2698 413.123 Q52.5777 410.386 46.212 410.386 Q39.8781 410.386 36.186 413.123 Q32.4621 415.86 32.4621 420.539 M27.4968 420.539 Q27.4968 412.9 32.4621 408.54 Q37.4273 404.179 46.212 404.179 Q54.9649 404.179 59.9619 408.54 Q64.9272 412.9 64.9272 420.539 Q64.9272 428.21 59.9619 432.57 Q54.9649 436.899 46.212 436.899 Q37.4273 436.899 32.4621 432.57 Q27.4968 428.21 27.4968 420.539 Z" fill="#000000" fill-rule="nonzero" fill-opacity="1" /><path clip-path="url(#clip620)" d="M33.7671 371.014 L14.479 371.014 L14.479 365.158 L64.0042 365.158 L64.0042 371.014 L58.657 371.014 Q61.8398 372.86 63.3994 375.693 Q64.9272 378.494 64.9272 382.44 Q64.9272 388.902 59.771 392.976 Q54.6147 397.018 46.212 397.018 Q37.8093 397.018 32.6531 392.976 Q27.4968 388.902 27.4968 382.44 Q27.4968 378.494 29.0564 375.693 Q30.5842 372.86 33.7671 371.014 M46.212 390.97 Q52.6732 390.97 56.3653 388.329 Q60.0256 385.655 60.0256 381.008 Q60.0256 376.361 56.3653 373.688 Q52.6732 371.014 46.212 371.014 Q39.7508 371.014 36.0905 373.688 Q32.3984 376.361 32.3984 381.008 Q32.3984 385.655 36.0905 388.329 Q39.7508 390.97 46.212 390.97 Z" fill="#000000" fill-rule="nonzero" fill-opacity="1" /><path clip-path="url(#clip620)" d="M44.7161 322.603 L47.5806 322.603 L47.5806 349.53 Q53.6281 349.148 56.8109 345.901 Q59.9619 342.623 59.9619 336.798 Q59.9619 333.424 59.1344 330.273 Q58.3069 327.091 56.6518 323.971 L62.1899 323.971 Q63.5267 327.122 64.227 330.433 Q64.9272 333.743 64.9272 337.148 Q64.9272 345.678 59.9619 350.676 Q54.9967 355.641 46.5303 355.641 Q37.7774 355.641 32.6531 350.93 Q27.4968 346.188 27.4968 338.167 Q27.4968 330.974 32.1438 326.804 Q36.7589 322.603 44.7161 322.603 M42.9973 328.459 Q38.1912 328.523 35.3266 331.165 Q32.4621 333.775 32.4621 338.103 Q32.4621 343.005 35.2312 345.965 Q38.0002 348.893 43.0292 349.339 L42.9973 328.459 Z" fill="#000000" fill-rule="nonzero" fill-opacity="1" /><path clip-path="url(#clip620)" d="M58.5933 290.329 L58.5933 279.825 L22.3406 279.825 L24.6323 291.252 L18.7758 291.252 L16.4842 279.889 L16.4842 273.46 L58.5933 273.46 L58.5933 262.956 L64.0042 262.956 L64.0042 290.329 L58.5933 290.329 Z" fill="#000000" fill-rule="nonzero" fill-opacity="1" /><path clip-path="url(#clip620)" d="M18.2347 224.284 L28.3562 224.284 L28.3562 212.221 L32.9077 212.221 L32.9077 224.284 L52.2594 224.284 Q56.6199 224.284 57.8613 223.107 Q59.1026 221.897 59.1026 218.237 L59.1026 212.221 L64.0042 212.221 L64.0042 218.237 Q64.0042 225.016 61.4897 227.595 Q58.9434 230.173 52.2594 230.173 L32.9077 230.173 L32.9077 234.47 L28.3562 234.47 L28.3562 230.173 L18.2347 230.173 L18.2347 224.284 Z" fill="#000000" fill-rule="nonzero" fill-opacity="1" /><path clip-path="url(#clip620)" d="M32.4621 190.705 Q32.4621 195.416 36.1542 198.153 Q39.8145 200.89 46.212 200.89 Q52.6095 200.89 56.3017 198.185 Q59.9619 195.448 59.9619 190.705 Q59.9619 186.027 56.2698 183.289 Q52.5777 180.552 46.212 180.552 Q39.8781 180.552 36.186 183.289 Q32.4621 186.027 32.4621 190.705 M27.4968 190.705 Q27.4968 183.066 32.4621 178.706 Q37.4273 174.345 46.212 174.345 Q54.9649 174.345 59.9619 178.706 Q64.9272 183.066 64.9272 190.705 Q64.9272 198.376 59.9619 202.737 Q54.9649 207.065 46.212 207.065 Q37.4273 207.065 32.4621 202.737 Q27.4968 198.376 27.4968 190.705 Z" fill="#000000" fill-rule="nonzero" fill-opacity="1" /><path clip-path="url(#clip620)" d="M28.3562 143.917 L28.3562 138.061 L64.0042 138.061 L64.0042 143.917 L28.3562 143.917 M14.479 143.917 L14.479 138.061 L21.895 138.061 L21.895 143.917 L14.479 143.917 Z" fill="#000000" fill-rule="nonzero" fill-opacity="1" /><polyline clip-path="url(#clip622)" style="stroke:#000080; stroke-linecap:round; stroke-linejoin:round; stroke-width:12; stroke-opacity:1; fill:none" points="292.4,1384.24 295.114,1346.49 297.828,1328.08 300.542,1312.04 303.256,1296.26 305.971,1282.32 308.685,1269.95 311.399,1259.67 314.113,1250.82 316.827,1242.1 319.541,1234.13 322.256,1226.5 324.97,1219.25 327.684,1212.37 330.398,1205.63 333.112,1199.17 335.826,1192.87 338.541,1186.7 341.255,1180.65 343.969,1174.77 346.683,1168.9 349.397,1163.25 352.112,1158.17 354.826,1153.32 357.54,1148.56 360.254,1143.9 362.968,1139.39 365.682,1135 368.397,1130.63 371.111,1126.28 373.825,1122 376.539,1117.76 379.253,1113.62 381.967,1109.48 384.682,1105.39 387.396,1101.31 390.11,1097.26 392.824,1093.25 395.538,1089.31 398.252,1085.42 400.967,1081.57 403.681,1077.72 406.395,1073.91 409.109,1070.16 411.823,1066.43 414.538,1062.78 417.252,1059.18 419.966,1055.63 422.68,1052.1 425.394,1048.61 428.108,1045.15 430.823,1041.72 433.537,1038.3 436.251,1034.93 438.965,1031.57 441.679,1028.24 444.393,1024.94 447.108,1021.67 449.822,1018.4 452.536,1015.15 455.25,1011.93 457.964,1008.76 460.678,1005.61 463.393,1002.49 466.107,999.389 468.821,996.296 471.535,993.242 474.249,990.194 476.964,987.174 479.678,984.176 482.392,981.184 485.106,978.206 487.82,975.24 490.534,972.279 493.249,969.322 495.963,966.373 498.677,963.434 501.391,960.502 504.105,957.584 506.819,954.666 509.534,951.748 512.248,948.83 514.962,945.912 517.676,942.993 520.39,940.083 523.104,937.185 525.819,934.319 528.533,931.467 531.247,928.62 533.961,925.791 536.675,922.976 539.39,920.172 542.104,917.381 544.818,914.616 547.532,911.884 550.246,909.164 552.96,906.468 555.675,903.791 558.389,901.119 561.103,898.47 563.817,895.831 566.531,893.204 569.245,890.606 571.96,888.015 574.674,885.43 577.388,882.876 580.102,880.324 582.816,877.806 585.53,875.293 588.245,872.791 590.959,870.301 593.673,867.818 596.387,865.351 599.101,862.895 601.815,860.449 604.53,858.011 607.244,855.576 609.958,853.148 612.672,850.737 615.386,848.339 618.101,845.952 620.815,843.57 623.529,841.212 626.243,838.858 628.957,836.509 631.671,834.183 634.386,831.869 637.1,829.557 639.814,827.26 642.528,824.967 645.242,822.68 647.956,820.406 650.671,818.14 653.385,815.878 656.099,813.622 658.813,811.371 661.527,809.13 664.241,806.897 666.956,804.676 669.67,802.462 672.384,800.271 675.098,798.089 677.812,795.917 680.527,793.751 683.241,791.586 685.955,789.425 688.669,787.266 691.383,785.113 694.097,782.961 696.812,780.809 699.526,778.657 702.24,776.506 704.954,774.354 707.668,772.202 710.382,770.052 713.097,767.902 715.811,765.753 718.525,763.604 721.239,761.456 723.953,759.31 726.667,757.17 729.382,755.035 732.096,752.907 734.81,750.783 737.524,748.664 740.238,746.55 742.953,744.451 745.667,742.359 748.381,740.272 751.095,738.19 753.809,736.115 756.523,734.044 759.238,731.981 761.952,729.927 764.666,727.881 767.38,725.839 770.094,723.801 772.808,721.767 775.523,719.739 778.237,717.717 780.951,715.7 783.665,713.692 786.379,711.684 789.093,709.676 791.808,707.668 794.522,705.66 797.236,703.652 799.95,701.648 802.664,699.646 805.378,697.649 808.093,695.656 810.807,693.664 813.521,691.673 816.235,689.687 818.949,687.703 821.664,685.723 824.378,683.743 827.092,681.768 829.806,679.798 832.52,677.834 835.234,675.873 837.949,673.911 840.663,671.956 843.377,670.012 846.091,668.07 848.805,666.133 851.519,664.198 854.234,662.268 856.948,660.339 859.662,658.417 862.376,656.504 865.09,654.593 867.804,652.688 870.519,650.787 873.233,648.887 875.947,647.001 878.661,645.118 881.375,643.24 884.09,641.363 886.804,639.486 889.518,637.609 892.232,635.732 894.946,633.855 897.66,631.978 900.375,630.112 903.089,628.251 905.803,626.391 908.517,624.533 911.231,622.679 913.945,620.826 916.66,618.977 919.374,617.136 922.088,615.295 924.802,613.457 927.516,611.62 930.23,609.79 932.945,607.96 935.659,606.136 938.373,604.313 941.087,602.49 943.801,600.67 946.516,598.856 949.23,597.046 951.944,595.239 954.658,593.435 957.372,591.634 960.086,589.835 962.801,588.042 965.515,586.249 968.229,584.458 970.943,582.67 973.657,580.889 976.371,579.113 979.086,577.337 981.8,575.565 984.514,573.795 987.228,572.031 989.942,570.27 992.656,568.511 995.371,566.757 998.085,565.009 1000.8,563.262 1003.51,561.522 1006.23,559.783 1008.94,558.049 1011.66,556.317 1014.37,554.591 1017.08,552.866 1019.8,551.143 1022.51,549.419 1025.23,547.695 1027.94,545.971 1030.65,544.247 1033.37,542.524 1036.08,540.802 1038.8,539.085 1041.51,537.376 1044.23,535.668 1046.94,533.962 1049.65,532.257 1052.37,530.553 1055.08,528.854 1057.8,527.157 1060.51,525.466 1063.22,523.777 1065.94,522.089 1068.65,520.404 1071.37,518.724 1074.08,517.045 1076.8,515.369 1079.51,513.697 1082.22,512.027 1084.94,510.363 1087.65,508.7 1090.37,507.038 1093.08,505.38 1095.8,503.724 1098.51,502.072 1101.22,500.421 1103.94,498.775 1106.65,497.134 1109.37,495.494 1112.08,493.856 1114.79,492.222 1117.51,490.59 1120.22,488.961 1122.94,487.337 1125.65,485.717 1128.37,484.099 1131.08,482.482 1133.79,480.868 1136.51,479.257 1139.22,477.655 1141.94,476.055 1144.65,474.46 1147.36,472.866 1150.08,471.275 1152.79,469.687 1155.51,468.103 1158.22,466.522 1160.94,464.944 1163.65,463.367 1166.36,461.794 1169.08,460.223 1171.79,458.657 1174.51,457.095 1177.22,455.536 1179.93,453.977 1182.65,452.418 1185.36,450.859 1188.08,449.3 1190.79,447.741 1193.51,446.183 1196.22,444.627 1198.93,443.074 1201.65,441.525 1204.36,439.978 1207.08,438.433 1209.79,436.89 1212.5,435.353 1215.22,433.818 1217.93,432.285 1220.65,430.753 1223.36,429.222 1226.08,427.692 1228.79,426.165 1231.5,424.64 1234.22,423.117 1236.93,421.597 1239.65,420.078 1242.36,418.561 1245.07,417.049 1247.79,415.538 1250.5,414.028 1253.22,412.522 1255.93,411.019 1258.65,409.517 1261.36,408.02 1264.07,406.526 1266.79,405.038 1269.5,403.555 1272.22,402.074 1274.93,400.595 1277.64,399.116 1280.36,397.638 1283.07,396.159 1285.79,394.681 1288.5,393.202 1291.22,391.724 1293.93,390.248 1296.64,388.773 1299.36,387.305 1302.07,385.842 1304.79,384.381 1307.5,382.922 1310.21,381.467 1312.93,380.016 1315.64,378.572 1318.36,377.13 1321.07,375.69 1323.79,374.256 1326.5,372.826 1329.21,371.396 1331.93,369.969 1334.64,368.545 1337.36,367.131 1340.07,365.718 1342.78,364.309 1345.5,362.907 1348.21,361.509 1350.93,360.114 1353.64,358.721 1356.36,357.333 1359.07,355.947 1361.78,354.565 1364.5,353.188 1367.21,351.815 1369.93,350.446 1372.64,349.079 1375.35,347.715 1378.07,346.353 1380.78,344.993 1383.5,343.64 1386.21,342.291 1388.93,340.946 1391.64,339.605 1394.35,338.266 1397.07,336.928 1399.78,335.593 1402.5,334.259 1405.21,332.927 1407.92,331.599 1410.64,330.274 1413.35,328.95 1416.07,327.629 1418.78,326.312 1421.5,325 1424.21,323.69 1426.92,322.383 1429.64,321.078 1432.35,319.78 1435.07,318.484 1437.78,317.189 1440.5,315.897 1443.21,314.607 1445.92,313.318 1448.64,312.031 1451.35,310.745 1454.07,309.463 1456.78,308.184 1459.49,306.908 1462.21,305.638 1464.92,304.371 1467.64,303.107 1470.35,301.845 1473.07,300.587 1475.78,299.333 1478.49,298.083 1481.21,296.84 1483.92,295.597 1486.64,294.359 1489.35,293.122 1492.06,291.886 1494.78,290.654 1497.49,289.422 1500.21,288.19 1502.92,286.958 1505.64,285.726 1508.35,284.494 1511.06,283.262 1513.78,282.031 1516.49,280.803 1519.21,279.579 1521.92,278.355 1524.63,277.135 1527.35,275.917 1530.06,274.7 1532.78,273.486 1535.49,272.275 1538.21,271.066 1540.92,269.861 1543.63,268.658 1546.35,267.457 1549.06,266.262 1551.78,265.066 1554.49,263.874 1557.2,262.688 1559.92,261.504 1562.63,260.323 1565.35,259.144 1568.06,257.965 1570.78,256.791 1573.49,255.619 1576.2,254.454 1578.92,253.29 1581.63,252.127 1584.35,250.969 1587.06,249.812 1589.77,248.66 1592.49,247.512 1595.2,246.368 1597.92,245.226 1600.63,244.089 1603.35,242.955 1606.06,241.822 1608.77,240.699 1611.49,239.579 1614.2,238.459 1616.92,237.345 1619.63,236.237 1622.34,235.133 1625.06,234.036 1627.77,232.941 1630.49,231.854 1633.2,230.767 1635.92,229.687 1638.63,228.616 1641.34,227.548 1644.06,226.481 1646.77,225.42 1649.49,224.361 1652.2,223.311 1654.91,222.264 1657.63,221.22 1660.34,220.177 1663.06,219.138 1665.77,218.105 1668.49,217.073 1671.2,216.045 1673.91,215.019 1676.63,213.997 1679.34,212.977 1682.06,211.97 1684.77,210.965 1687.48,209.969 1690.2,208.983 1692.91,208.002 1695.63,207.024 1698.34,206.049 1701.06,205.076 1703.77,204.106 1706.48,203.142 1709.2,202.185 1711.91,201.23 1714.63,200.28 1717.34,199.333 1720.05,198.387 1722.77,197.44 1725.48,196.493 1728.2,195.546 1730.91,194.599 1733.63,193.656 1736.34,192.713 1739.05,191.778 1741.77,190.844 1744.48,189.915 1747.2,188.993 1749.91,188.074 1752.63,187.157 1755.34,186.243 1758.05,185.331 1760.77,184.421 1763.48,183.512 1766.2,182.603 1768.91,181.693 1771.62,180.784 1774.34,179.875 1777.05,178.971 1779.77,178.069 1782.48,177.169 1785.2,176.271 1787.91,175.378 1790.62,174.488 1793.34,173.599 1796.05,172.711 1798.77,171.829 1801.48,170.947 1804.19,170.067 1806.91,169.191 1809.62,168.329 1812.34,167.468 1815.05,166.617 1817.77,165.766 1820.48,164.915 1823.19,164.066 1825.91,163.218 1828.62,162.373 1831.34,161.537 1834.05,160.705 1836.76,159.875 1839.48,159.05 1842.19,158.235 1844.91,157.423 1847.62,156.617 1850.34,155.813 1853.05,155.015 1855.76,154.22 1858.48,153.428 1861.19,152.648 1863.91,151.873 1866.62,151.107 1869.33,150.344 1872.05,149.583 1874.76,148.821 1877.48,148.059 1880.19,147.298 1882.91,146.536 1885.62,145.775 1888.33,145.022 1891.05,144.273 1893.76,143.526 1896.48,142.782 1899.19,142.043 1901.9,141.309 1904.62,140.576 1907.33,139.845 1910.05,139.116 1912.76,138.39 1915.48,137.667 1918.19,136.951 1920.9,136.248 1923.62,135.55 1926.33,134.853 1929.05,134.16 1931.76,133.468 1934.47,132.778 1937.19,132.09 1939.9,131.404 1942.62,130.726 1945.33,130.055 1948.05,129.387 1950.76,128.724 1953.47,128.064 1956.19,127.411 1958.9,126.76 1961.62,126.115 1964.33,125.473 1967.04,124.836 1969.76,124.203 1972.47,123.574 1975.19,122.954 1977.9,122.336 1980.62,121.722 1983.33,121.112 1986.04,120.505 1988.76,119.901 1991.47,119.298 1994.19,118.704 1996.9,118.112 1999.61,117.527 2002.33,116.942 2005.04,116.363 2007.76,115.79 2010.47,115.219 2013.19,114.656 2015.9,114.098 2018.61,113.542 2021.33,112.996 2024.04,112.452 2026.76,111.913 2029.47,111.376 2032.18,110.846 2034.9,110.33 2037.61,109.819 2040.33,109.313 2043.04,108.813 2045.76,108.316 2048.47,107.829 2051.18,107.344 2053.9,106.863 2056.61,106.383 2059.33,105.908 2062.04,105.447 2064.75,104.993 2067.47,104.542 2070.18,104.1 2072.9,103.659 2075.61,103.228 2078.33,102.802 2081.04,102.381 2083.75,101.96 2086.47,101.543 2089.18,101.133 2091.9,100.725 2094.61,100.318 2097.33,99.9106 2100.04,99.5032 2102.75,99.0957 2105.47,98.6883 2108.18,98.2834 2110.9,97.8892 2113.61,97.4982 2116.32,97.1118 2119.04,96.7268 2121.75,96.3537 2124.47,95.9833 2127.18,95.6222 2129.9,95.2653 2132.61,94.912 2135.32,94.5662 2138.04,94.2208 2140.75,93.8795 2143.47,93.5428 2146.18,93.2191 2148.89,92.897 2151.61,92.5776 2154.32,92.2638 2157.04,91.9544 2159.75,91.6472 2162.47,91.3457 2165.18,91.0618 2167.89,90.7807 2170.61,90.5068 2173.32,90.2357 2176.04,89.9701 2178.75,89.7121 2181.46,89.4566 2184.18,89.2136 2186.89,88.979 2189.61,88.76 2192.32,88.5471 2195.04,88.3391 2197.75,88.1389 2200.46,87.9496 2203.18,87.7685 2205.89,87.5921 2208.61,87.4263 2211.32,87.269 2214.03,87.12 2216.75,86.989 2219.46,86.8614 2222.18,86.7456 2224.89,86.636 2227.61,86.5365 2230.32,86.445 2233.03,86.3605 2235.75,86.2844 2238.46,86.2163 2241.18,86.1857 2243.89,86.1857 2246.6,86.1857 2249.32,86.1857 2252.03,86.1857 2254.75,86.1857 2257.46,86.1857 2260.18,86.1857 2262.89,86.1857 2265.6,86.1857 2268.32,86.1857 2271.03,86.1857 2273.75,86.1857 2276.46,86.1857 2279.17,86.1857 2281.89,86.1857 2284.6,86.1857 2287.32,86.1857 2290.03,86.1857 2292.75,86.1857 "/>
<path clip-path="url(#clip620)" d="M303.068 196.789 L890.149 196.789 L890.149 93.1086 L303.068 93.1086  Z" fill="#f2f2f2" fill-rule="evenodd" fill-opacity="1"/>
<polyline clip-path="url(#clip620)" style="stroke:#000000; stroke-linecap:round; stroke-linejoin:round; stroke-width:4; stroke-opacity:0; fill:none" points="303.068,196.789 890.149,196.789 890.149,93.1086 303.068,93.1086 303.068,196.789 "/>
<polyline clip-path="url(#clip620)" style="stroke:#000080; stroke-linecap:round; stroke-linejoin:round; stroke-width:12; stroke-opacity:1; fill:none" points="326.628,144.949 467.986,144.949 "/>
<path clip-path="url(#clip620)" d="M513.791 128.803 L513.791 133.363 Q511.128 132.09 508.767 131.465 Q506.406 130.84 504.207 130.84 Q500.388 130.84 498.304 132.321 Q496.244 133.803 496.244 136.534 Q496.244 138.826 497.61 140.007 Q498.999 141.164 502.841 141.882 L505.666 142.46 Q510.897 143.456 513.374 145.979 Q515.874 148.479 515.874 152.692 Q515.874 157.715 512.494 160.307 Q509.138 162.9 502.633 162.9 Q500.179 162.9 497.402 162.344 Q494.647 161.789 491.684 160.701 L491.684 155.886 Q494.531 157.483 497.263 158.293 Q499.994 159.104 502.633 159.104 Q506.638 159.104 508.814 157.53 Q510.99 155.956 510.99 153.039 Q510.99 150.493 509.416 149.057 Q507.865 147.622 504.3 146.905 L501.453 146.349 Q496.221 145.307 493.883 143.085 Q491.545 140.863 491.545 136.905 Q491.545 132.321 494.763 129.682 Q498.004 127.044 503.675 127.044 Q506.105 127.044 508.629 127.483 Q511.152 127.923 513.791 128.803 Z" fill="#000000" fill-rule="nonzero" fill-opacity="1" /><path clip-path="url(#clip620)" d="M541.638 137.298 L541.638 141.28 Q539.832 140.284 538.003 139.798 Q536.198 139.289 534.346 139.289 Q530.202 139.289 527.911 141.928 Q525.619 144.544 525.619 149.289 Q525.619 154.034 527.911 156.673 Q530.202 159.289 534.346 159.289 Q536.198 159.289 538.003 158.803 Q539.832 158.293 541.638 157.298 L541.638 161.233 Q539.855 162.067 537.934 162.483 Q536.036 162.9 533.883 162.9 Q528.027 162.9 524.577 159.219 Q521.128 155.539 521.128 149.289 Q521.128 142.946 524.601 139.312 Q528.096 135.678 534.161 135.678 Q536.128 135.678 538.003 136.095 Q539.878 136.488 541.638 137.298 Z" fill="#000000" fill-rule="nonzero" fill-opacity="1" /><path clip-path="url(#clip620)" d="M560.827 149.196 Q555.665 149.196 553.675 150.377 Q551.684 151.557 551.684 154.405 Q551.684 156.673 553.165 158.016 Q554.67 159.335 557.239 159.335 Q560.781 159.335 562.911 156.835 Q565.063 154.312 565.063 150.145 L565.063 149.196 L560.827 149.196 M569.323 147.437 L569.323 162.229 L565.063 162.229 L565.063 158.293 Q563.605 160.655 561.429 161.789 Q559.253 162.9 556.105 162.9 Q552.124 162.9 549.763 160.678 Q547.425 158.432 547.425 154.682 Q547.425 150.307 550.341 148.085 Q553.281 145.863 559.091 145.863 L565.063 145.863 L565.063 145.446 Q565.063 142.507 563.119 140.909 Q561.198 139.289 557.702 139.289 Q555.48 139.289 553.374 139.821 Q551.267 140.354 549.323 141.419 L549.323 137.483 Q551.661 136.581 553.86 136.141 Q556.059 135.678 558.142 135.678 Q563.767 135.678 566.545 138.594 Q569.323 141.511 569.323 147.437 Z" fill="#000000" fill-rule="nonzero" fill-opacity="1" /><path clip-path="url(#clip620)" d="M578.096 126.21 L582.355 126.21 L582.355 162.229 L578.096 162.229 L578.096 126.21 Z" fill="#000000" fill-rule="nonzero" fill-opacity="1" /><path clip-path="url(#clip620)" d="M613.443 148.201 L613.443 150.284 L593.86 150.284 Q594.137 154.682 596.498 156.997 Q598.883 159.289 603.119 159.289 Q605.572 159.289 607.864 158.687 Q610.179 158.085 612.447 156.881 L612.447 160.909 Q610.156 161.881 607.748 162.391 Q605.341 162.9 602.864 162.9 Q596.66 162.9 593.026 159.289 Q589.415 155.678 589.415 149.52 Q589.415 143.155 592.841 139.428 Q596.29 135.678 602.123 135.678 Q607.355 135.678 610.387 139.057 Q613.443 142.414 613.443 148.201 M609.184 146.951 Q609.137 143.456 607.216 141.372 Q605.318 139.289 602.17 139.289 Q598.605 139.289 596.452 141.303 Q594.322 143.317 593.998 146.974 L609.184 146.951 Z" fill="#000000" fill-rule="nonzero" fill-opacity="1" /><path clip-path="url(#clip620)" d="M637.494 140.238 L637.494 126.21 L641.753 126.21 L641.753 162.229 L637.494 162.229 L637.494 158.34 Q636.151 160.655 634.091 161.789 Q632.054 162.9 629.183 162.9 Q624.484 162.9 621.521 159.15 Q618.582 155.4 618.582 149.289 Q618.582 143.178 621.521 139.428 Q624.484 135.678 629.183 135.678 Q632.054 135.678 634.091 136.812 Q636.151 137.923 637.494 140.238 M622.98 149.289 Q622.98 153.988 624.901 156.673 Q626.845 159.335 630.225 159.335 Q633.605 159.335 635.549 156.673 Q637.494 153.988 637.494 149.289 Q637.494 144.59 635.549 141.928 Q633.605 139.243 630.225 139.243 Q626.845 139.243 624.901 141.928 Q622.98 144.59 622.98 149.289 Z" fill="#000000" fill-rule="nonzero" fill-opacity="1" /><path clip-path="url(#clip620)" d="M675.641 139.682 Q672.123 139.682 670.225 142.229 Q668.234 144.891 668.234 149.289 Q668.234 153.942 670.202 156.627 Q672.192 159.289 675.641 159.289 Q679.044 159.289 681.035 156.604 Q683.026 153.918 683.026 149.289 Q683.026 145.053 681.035 142.229 Q679.206 139.682 675.641 139.682 M675.641 136.303 L689.785 136.303 L689.785 140.562 L685.016 140.562 Q687.54 144.173 687.54 149.289 Q687.54 155.655 684.368 159.266 Q681.197 162.9 675.641 162.9 Q670.063 162.9 666.915 159.266 Q663.743 155.655 663.743 149.289 Q663.743 142.877 666.915 139.289 Q669.53 136.303 675.641 136.303 Z" fill="#000000" fill-rule="nonzero" fill-opacity="1" /><path clip-path="url(#clip620)" d="M693.998 147.715 L696.683 147.715 L696.683 162.229 L693.998 162.229 L693.998 147.715 M693.998 142.067 L696.683 142.067 L696.683 145.076 L693.998 145.076 L693.998 142.067 Z" fill="#000000" fill-rule="nonzero" fill-opacity="1" /><path clip-path="url(#clip620)" d="M716.127 136.303 L720.641 136.303 L728.743 158.062 L736.845 136.303 L741.359 136.303 L731.637 162.229 L725.85 162.229 L716.127 136.303 Z" fill="#000000" fill-rule="nonzero" fill-opacity="1" /><path clip-path="url(#clip620)" d="M759.021 149.196 Q753.859 149.196 751.868 150.377 Q749.877 151.557 749.877 154.405 Q749.877 156.673 751.359 158.016 Q752.863 159.335 755.433 159.335 Q758.974 159.335 761.104 156.835 Q763.257 154.312 763.257 150.145 L763.257 149.196 L759.021 149.196 M767.516 147.437 L767.516 162.229 L763.257 162.229 L763.257 158.293 Q761.798 160.655 759.623 161.789 Q757.447 162.9 754.298 162.9 Q750.317 162.9 747.956 160.678 Q745.618 158.432 745.618 154.682 Q745.618 150.307 748.535 148.085 Q751.474 145.863 757.285 145.863 L763.257 145.863 L763.257 145.446 Q763.257 142.507 761.312 140.909 Q759.391 139.289 755.896 139.289 Q753.673 139.289 751.567 139.821 Q749.461 140.354 747.516 141.419 L747.516 137.483 Q749.854 136.581 752.053 136.141 Q754.252 135.678 756.336 135.678 Q761.96 135.678 764.738 138.594 Q767.516 141.511 767.516 147.437 Z" fill="#000000" fill-rule="nonzero" fill-opacity="1" /><path clip-path="url(#clip620)" d="M776.289 126.21 L780.548 126.21 L780.548 162.229 L776.289 162.229 L776.289 126.21 Z" fill="#000000" fill-rule="nonzero" fill-opacity="1" /><path clip-path="url(#clip620)" d="M789.021 151.997 L789.021 136.303 L793.28 136.303 L793.28 151.835 Q793.28 155.516 794.715 157.368 Q796.15 159.196 799.02 159.196 Q802.47 159.196 804.46 156.997 Q806.474 154.798 806.474 151.002 L806.474 136.303 L810.733 136.303 L810.733 162.229 L806.474 162.229 L806.474 158.247 Q804.923 160.608 802.863 161.766 Q800.826 162.9 798.118 162.9 Q793.65 162.9 791.335 160.122 Q789.021 157.344 789.021 151.997 M799.738 135.678 L799.738 135.678 Z" fill="#000000" fill-rule="nonzero" fill-opacity="1" /><path clip-path="url(#clip620)" d="M841.682 148.201 L841.682 150.284 L822.099 150.284 Q822.377 154.682 824.738 156.997 Q827.122 159.289 831.358 159.289 Q833.812 159.289 836.104 158.687 Q838.418 158.085 840.687 156.881 L840.687 160.909 Q838.395 161.881 835.988 162.391 Q833.58 162.9 831.104 162.9 Q824.9 162.9 821.266 159.289 Q817.655 155.678 817.655 149.52 Q817.655 143.155 821.081 139.428 Q824.53 135.678 830.363 135.678 Q835.594 135.678 838.627 139.057 Q841.682 142.414 841.682 148.201 M837.423 146.951 Q837.377 143.456 835.455 141.372 Q833.557 139.289 830.409 139.289 Q826.844 139.289 824.692 141.303 Q822.562 143.317 822.238 146.974 L837.423 146.951 Z" fill="#000000" fill-rule="nonzero" fill-opacity="1" /><path clip-path="url(#clip620)" d="M865.201 137.067 L865.201 141.094 Q863.395 140.169 861.451 139.706 Q859.506 139.243 857.423 139.243 Q854.252 139.243 852.654 140.215 Q851.08 141.187 851.08 143.131 Q851.08 144.613 852.215 145.469 Q853.349 146.303 856.775 147.067 L858.233 147.391 Q862.77 148.363 864.668 150.145 Q866.59 151.905 866.59 155.076 Q866.59 158.687 863.719 160.793 Q860.872 162.9 855.872 162.9 Q853.789 162.9 851.52 162.483 Q849.275 162.09 846.775 161.28 L846.775 156.881 Q849.136 158.108 851.428 158.733 Q853.719 159.335 855.965 159.335 Q858.974 159.335 860.594 158.317 Q862.215 157.275 862.215 155.4 Q862.215 153.664 861.034 152.738 Q859.877 151.812 855.918 150.956 L854.437 150.608 Q850.479 149.775 848.719 148.062 Q846.96 146.326 846.96 143.317 Q846.96 139.659 849.553 137.669 Q852.145 135.678 856.914 135.678 Q859.275 135.678 861.358 136.025 Q863.441 136.372 865.201 137.067 Z" fill="#000000" fill-rule="nonzero" fill-opacity="1" /></svg>
